:SAMPLES-PER-SECOND 30
:FRAME-RANGE 1-668
:FULLY-SPECIFIED
:DEGREES
522
root  5.16062 40.1192 -13.6027 176.762 -45.4995 -174.313
RightUpLeg  -2.90826 -1.08487 2.82633
RightLeg  4.752 -0.615142 0.205099
RightFoot  -3.52341 -0.262351 3.48626
RightToes  -1.33073e-015 0 -3.6325e-017
Spine  3.99043 0.664411 2.2089
Spine1  3.40245 3.38467 -11.3818
HEad  3.34151 -44.7512 15.1126
LeftShoulder1  0.292378 2.55719 -24.6252
LeftArm  -41.9823 10.6064 -7.58868
LeftForeArm  -31.518 -39.1615 -10.753
LeftHand  -0.64786 10.0008 -14.155
RightShoulder  1.92362 7.98542 9.40009
RightArm  -10.9051 -1.42738 4.40629
RightForeArm  20.5301 11.2738 9.75489
RightHand  -0.528918 2.38852 -8.0894
LeftUpLeg  -3.83266 11.6526 14.0489
LeftLeg  7.38546 -1.52101 -0.251572
LeftFoot  -2.45883 0.856556 -10.8152
LeftToes  -2.73175e-012 1.00346e-010 -4.28452e-011
523
root  5.04388 40.1342 -13.4374 176.967 -47.7153 -174.723
RightUpLeg  -2.8984 -1.79897 1.92463
RightLeg  5.10608 -1.96991 0.19
RightFoot  -3.7481 -0.266454 3.62845
RightToes  -1.33073e-015 0 -3.6325e-017
Spine  4.0057 0.901859 0.804851
Spine1  4.37218 2.71965 -7.18542
HEad  0.637444 -44.3585 14.5829
LeftShoulder1  0.553057 1.47161 -20.7647
LeftArm  -35.5431 13.3561 -12.7297
LeftForeArm  -33.7012 -37.9505 -10.4293
LeftHand  -0.803974 10.8691 -14.9883
RightShoulder  2.52459 8.81681 13.5645
RightArm  -26.3703 -0.489352 1.49101
RightForeArm  22.053 9.53671 8.18149
RightHand  -0.588421 2.02819 -9.38321
LeftUpLeg  -4.49853 10.6803 12.9495
LeftLeg  7.31597 -2.49817 -0.204378
LeftFoot  -2.25926 0.850577 -10.518
LeftToes  -2.73175e-012 1.00346e-010 -4.28452e-011
524
root  4.8963 40.1438 -13.28 177.316 -49.8586 -175.168
RightUpLeg  -2.93906 -2.57008 0.96568
RightLeg  5.51705 -3.0987 0.22242
RightFoot  -4.05706 -0.276244 3.90335
RightToes  -1.33073e-015 0 -3.6325e-017
Spine  3.78474 1.10434 -1.56175
Spine1  5.39588 1.55344 -1.41888
HEad  -1.77346 -42.662 12.934
LeftShoulder1  0.660529 0.692529 -16.7722
LeftArm  -26.9971 17.2024 -17.395
LeftForeArm  -38.7333 -38.4046 -10.7591
LeftHand  -1.10135 12.2485 -16.6575
RightShoulder  2.95596 9.26948 16.4735
RightArm  -34.5958 2.29518 -0.743077
RightForeArm  21.8687 8.53202 6.82052
RightHand  -0.598876 1.53069 -10.1926
LeftUpLeg  -5.18783 9.66896 11.8339
LeftLeg  7.31845 -3.42022 -0.15568
LeftFoot  -2.10377 0.825527 -10.0444
LeftToes  -2.73175e-012 1.00346e-010 -4.28452e-011
525
root  4.74371 40.1467 -13.116 177.718 -51.9262 -175.646
RightUpLeg  -2.97242 -3.39736 -0.0174038
RightLeg  5.96607 -4.26797 0.276456
RightFoot  -4.41035 -0.286916 4.23907
RightToes  -1.33073e-015 0 -3.6325e-017
Spine  3.73422 1.20922 -3.9474
Spine1  5.93505 0.165867 4.4791
HEad  -3.52293 -39.1136 9.35386
LeftShoulder1  0.704593 0.029333 -13.2625
LeftArm  -15.975 20.6504 -19.6625
LeftForeArm  -44.2785 -40.2023 -11.5552
LeftHand  -1.59688 14.7729 -17.8536
RightShoulder  3.30862 9.64506 18.6683
RightArm  -39.0979 5.56696 -2.70467
RightForeArm  23.4678 7.59633 5.72808
RightHand  -0.62768 2.03487 -9.98652
LeftUpLeg  -5.86295 8.85863 10.8015
LeftLeg  7.43757 -4.47775 -0.262036
LeftFoot  -2.05669 0.803636 -9.72492
LeftToes  -2.73175e-012 1.00346e-010 -4.28452e-011
526
root  4.57852 40.1493 -12.9477 178.023 -53.9376 -176.067
RightUpLeg  -2.77778 -4.21282 -0.965218
RightLeg  6.19677 -5.30884 0.368203
RightFoot  -4.64929 -0.303196 4.64089
RightToes  -1.33073e-015 0 -3.6325e-017
Spine  3.85508 1.33917 -5.70006
Spine1  6.0631 -1.06197 9.7656
HEad  -4.35358 -33.5664 4.27945
LeftShoulder1  0.699953 -0.484185 -10.2494
LeftArm  -3.81029 22.9064 -19.9913
LeftForeArm  -48.658 -42.8628 -12.673
LeftHand  -2.20755 17.3854 -19.4123
RightShoulder  3.64872 9.87609 20.9354
RightArm  -41.2989 8.50265 -4.95495
RightForeArm  24.5202 7.59966 5.32731
RightHand  -0.635271 2.10081 -10.0206
LeftUpLeg  -6.40829 8.18313 9.87378
LeftLeg  7.58467 -5.59503 -0.44143
LeftFoot  -2.00461 0.774507 -9.32374
LeftToes  -2.73175e-012 1.00346e-010 -4.28452e-011
527
root  4.40027 40.1535 -12.755 178.602 -55.5337 -176.654
RightUpLeg  -2.7006 -4.97417 -1.9546
RightLeg  6.35223 -6.04691 0.389556
RightFoot  -4.85719 -0.329998 5.23714
RightToes  -1.33073e-015 0 -3.6325e-017
Spine  3.91207 1.61155 -6.33188
Spine1  5.82469 -1.75039 13.7039
HEad  -4.00462 -25.525 -2.21841
LeftShoulder1  0.680438 -0.850073 -8.10701
LeftArm  8.52165 22.9718 -18.3264
LeftForeArm  -52.762 -45.3699 -13.8037
LeftHand  -2.9111 19.539 -21.7544
RightShoulder  3.94663 9.99172 23.0377
RightArm  -43.2621 10.6975 -6.93611
RightForeArm  26.262 8.17983 4.9969
RightHand  -0.663658 2.28217 -10.2244
LeftUpLeg  -6.90922 7.50815 8.87236
LeftLeg  7.65949 -6.29814 -0.582464
LeftFoot  -1.95297 0.747502 -8.94894
LeftToes  -2.73175e-012 1.00346e-010 -4.28452e-011
528
root  4.21389 40.1548 -12.5656 179.122 -56.7554 -177.253
RightUpLeg  -2.5118 -5.53875 -2.81389
RightLeg  6.43379 -6.58812 0.246946
RightFoot  -4.9933 -0.356495 5.80949
RightToes  -1.33073e-015 0 -3.6325e-017
Spine  3.8519 1.96759 -5.92459
Spine1  5.5979 -1.94989 16.2006
HEad  -3.90146 -15.5626 -8.63428
LeftShoulder1  0.703606 -1.42576 -6.59089
LeftArm  18.9995 22.3019 -15.4085
LeftForeArm  -55.7252 -48.667 -15.3982
LeftHand  -3.56975 21.5959 -23.2839
RightShoulder  4.29509 10.1267 25.4247
RightArm  -44.5148 12.1492 -8.76265
RightForeArm  26.7741 9.3434 4.97136
RightHand  -0.679439 2.05055 -10.77
LeftUpLeg  -7.21883 6.92264 7.95948
LeftLeg  7.8076 -6.76746 -0.717398
LeftFoot  -1.96784 0.714891 -8.56609
LeftToes  -2.73175e-012 1.00346e-010 -4.28452e-011
529
root  4.03525 40.1514 -12.3691 179.882 -57.6448 -178.104
RightUpLeg  -2.49168 -6.12288 -3.75109
RightLeg  6.70496 -6.83008 0.0622386
RightFoot  -5.16897 -0.378339 6.35673
RightToes  -1.33073e-015 0 -3.6325e-017
Spine  3.89296 2.42205 -5.15644
Spine1  5.42912 -1.83436 17.8485
HEad  -4.055 -4.68805 -14.3965
LeftShoulder1  0.647331 -1.57606 -4.86931
LeftArm  26.5368 21.8307 -12.9471
LeftForeArm  -55.4721 -52.8652 -17.7274
LeftHand  -4.02363 22.6242 -24.6638
RightShoulder  4.49286 10.1139 26.9694
RightArm  -44.6653 13.1093 -9.58385
RightForeArm  27.1088 10.2146 5.08677
RightHand  -0.684383 2.03378 -10.8699
LeftUpLeg  -7.45864 6.27586 6.95579
LeftLeg  7.95082 -6.89766 -0.798912
LeftFoot  -2.00445 0.688051 -8.26973
LeftToes  -2.73175e-012 1.00346e-010 -4.28452e-011
530
root  3.86407 40.1499 -12.1901 -179.338 -58.0896 -178.949
RightUpLeg  -2.49997 -6.60999 -4.61778
RightLeg  6.88484 -6.64327 -0.0941636
RightFoot  -5.24571 -0.398336 6.8013
RightToes  -1.33073e-015 0 -3.6325e-017
Spine  4.12035 2.99166 -3.80817
Spine1  4.98266 -1.24489 18.2675
HEad  -4.43317 6.02757 -18.8393
LeftShoulder1  0.565909 -1.55371 -3.11377
LeftArm  31.7532 21.587 -9.9262
LeftForeArm  -54.0522 -57.6155 -21.052
LeftHand  -4.52172 23.8267 -25.8772
RightShoulder  4.75627 10.344 28.3672
RightArm  -43.9704 13.2634 -10.0707
RightForeArm  27.763 10.6193 5.23826
RightHand  -0.693247 2.19054 -10.7917
LeftUpLeg  -7.55215 5.85813 6.07503
LeftLeg  7.99124 -6.809 -0.888168
LeftFoot  -2.04194 0.656522 -7.91418
LeftToes  -2.73175e-012 1.00346e-010 -4.28452e-011
531
root  3.70288 40.1565 -12.0325 -178.46 -58.269 -179.833
RightUpLeg  -2.53573 -7.03809 -5.4278
RightLeg  6.90202 -6.38181 -0.246539
RightFoot  -5.25675 -0.425175 7.31528
RightToes  -1.33073e-015 0 -3.6325e-017
Spine  4.40197 3.6378 -2.24229
Spine1  4.51612 -0.362739 17.849
HEad  -4.60785 16.7501 -22.0097
LeftShoulder1  0.463513 -1.32386 -1.31221
LeftArm  34.2754 21.8416 -7.00975
LeftForeArm  -50.9743 -61.6128 -24.7059
LeftHand  -4.84191 24.2473 -27.0709
RightShoulder  4.99999 10.5855 29.5356
RightArm  -42.2248 13.0009 -10.3141
RightForeArm  27.8117 10.6717 5.62247
RightHand  -0.694029 2.15291 -10.8547
LeftUpLeg  -7.52593 5.54446 5.24766
LeftLeg  7.77126 -6.56623 -0.952235
LeftFoot  -1.97087 0.636095 -7.63453
LeftToes  -2.73175e-012 1.00346e-010 -4.28452e-011
532
root  3.54757 40.1654 -11.9137 -177.78 -58.6912 179.481
RightUpLeg  -2.36165 -7.44448 -6.10422
RightLeg  6.72413 -6.3826 -0.315612
RightFoot  -5.18816 -0.449989 7.70218
RightToes  -1.33073e-015 0 -3.6325e-017
Spine  4.65945 4.29699 -0.68822
Spine1  4.12414 0.568007 17.2534
HEad  -4.81021 26.405 -24.2333
LeftShoulder1  0.344741 -0.7742 0.443583
LeftArm  34.0848 21.9211 -5.16787
LeftForeArm  -47.9028 -64.9792 -28.7623
LeftHand  -5.13499 24.9824 -27.6037
RightShoulder  5.11941 10.6196 30.3101
RightArm  -40.1471 12.2212 -10.3098
RightForeArm  28.2043 10.845 5.98115
RightHand  -0.689529 2.4408 -10.4102
LeftUpLeg  -7.46864 5.27712 4.59018
LeftLeg  7.52559 -6.63458 -1.04932
LeftFoot  -1.85018 0.617477 -7.34197
LeftToes  -2.73175e-012 1.00346e-010 -4.28452e-011
533
root  3.41298 40.1755 -11.8289 -177.324 -59.457 178.893
RightUpLeg  -1.866 -7.91027 -6.73247
RightLeg  6.40256 -6.66243 -0.269426
RightFoot  -5.1075 -0.46863 7.95341
RightToes  -1.33073e-015 0 -3.6325e-017
Spine  5.15707 4.98488 1.06405
Spine1  3.49934 1.66101 16.2683
HEad  -3.72029 33.9732 -24.4971
LeftShoulder1  0.259232 -0.173981 1.59565
LeftArm  30.7929 20.7617 -4.16227
LeftForeArm  -46.8607 -66.333 -30.7667
LeftHand  -5.39271 25.7105 -27.9217
RightShoulder  5.20203 10.498 31.2291
RightArm  -38.2698 10.872 -10.5655
RightForeArm  28.453 11.2344 6.19308
RightHand  -0.731407 2.6755 -10.7228
LeftUpLeg  -7.32493 4.93891 4.03103
LeftLeg  7.31221 -6.94801 -1.1177
LeftFoot  -1.76597 0.610454 -7.20553
LeftToes  -2.73175e-012 1.00346e-010 -4.28452e-011
534
root  3.29333 40.1715 -11.7904 -177 -60.8051 178.361
RightUpLeg  -1.1316 -8.44556 -7.31234
RightLeg  6.15105 -7.37968 -0.154498
RightFoot  -5.23247 -0.480117 8.31426
RightToes  -1.33073e-015 0 -3.6325e-017
Spine  5.44762 5.45943 2.60087
Spine1  3.22739 2.46402 15.3783
HEad  -2.03142 39.867 -23.8065
LeftShoulder1  0.22595 0.28139 1.63878
LeftArm  25.0597 19.4546 -3.33218
LeftForeArm  -46.656 -66.9576 -31.7878
LeftHand  -5.38701 26.021 -27.467
RightShoulder  5.24215 10.3538 31.9128
RightArm  -37.0197 9.31293 -10.5792
RightForeArm  28.7268 11.5981 6.22088
RightHand  -0.761475 2.84885 -10.9301
LeftUpLeg  -7.23122 4.61717 3.58881
LeftLeg  7.27229 -7.88304 -1.27494
LeftFoot  -1.74387 0.60326 -7.05662
LeftToes  -2.73175e-012 1.00346e-010 -4.28452e-011
535
root  3.20225 40.1731 -11.8088 -176.739 -62.5114 177.978
RightUpLeg  -0.324395 -8.81609 -7.64635
RightLeg  5.79967 -8.62727 -0.0386281
RightFoot  -5.29858 -0.480377 8.40152
RightToes  -1.33073e-015 0 -3.6325e-017
Spine  5.71738 5.68832 4.0553
Spine1  2.83202 3.09089 14.1472
HEad  -0.601185 44.082 -22.5352
LeftShoulder1  0.193288 0.925227 1.08916
LeftArm  16.6447 17.7137 -2.96115
LeftForeArm  -46.2393 -66.9784 -31.8172
LeftHand  -5.17688 26.0189 -26.4078
RightShoulder  5.24054 10.0499 32.7551
RightArm  -35.4733 7.84613 -10.2254
RightForeArm  27.65 12.4309 6.25695
RightHand  -0.763349 2.68269 -11.1699
LeftUpLeg  -7.23126 4.40855 3.345
LeftLeg  7.1997 -9.23493 -1.4866
LeftFoot  -1.65898 0.605855 -7.03115
LeftToes  -2.73175e-012 1.00346e-010 -4.28452e-011
536
root  3.13556 40.1731 -11.8844 -176.517 -64.4001 177.63
RightUpLeg  0.49667 -9.13056 -7.82782
RightLeg  5.56384 -10.2163 0.0834237
RightFoot  -5.4346 -0.473613 8.4464
RightToes  -1.33073e-015 0 -3.6325e-017
Spine  5.89663 5.83156 5.39557
Spine1  2.378 3.67065 12.6973
HEad  1.09621 46.4967 -20.5594
LeftShoulder1  0.17862 1.38186 0.0417992
LeftArm  6.77507 15.0581 -3.37115
LeftForeArm  -47.1091 -65.1253 -28.9554
LeftHand  -4.7022 25.2204 -24.9831
RightShoulder  5.26859 9.7104 33.9604
RightArm  -33.5443 6.58493 -10.0285
RightForeArm  26.2448 13.0284 6.39279
RightHand  -0.759104 2.57327 -11.2541
LeftUpLeg  -7.23286 4.26479 3.242
LeftLeg  7.12241 -10.7562 -1.7078
LeftFoot  -1.60651 0.625766 -7.23001
LeftToes  -2.73175e-012 1.00346e-010 -4.28452e-011
